<?xml version="1.0" ?><svg id="Layer_1" style="enable-background:new 0 0 512 512;fill:white" version="1.1" viewBox="0 0 512 512" xml:space="preserve" xmlns="http://www.w3.org/2000/svg" xmlns:xlink="http://www.w3.org/1999/xlink"><g id="XMLID_434_"><path d="M341.3,17.6H239.6C205.2,1,166.2,2.7,134.2,19.4L306,118.7c-1-24.2-9.5-47.8-24.5-67.2h59.8   c23.4,0,42.3,19,42.3,42.3v394.8c0,9.1,7,17,16.1,17.4c9.7,0.5,17.7-7.3,17.7-16.9V93.8C417.5,51.7,383.4,17.6,341.3,17.6z" id="XMLID_447_"/><rect height="43" id="XMLID_446_" transform="matrix(-0.8659 -0.5001 0.5001 -0.8659 338.9806 276.0524)" width="216.8" x="98.1" y="71.1"/><rect height="9.2" id="XMLID_445_" transform="matrix(-0.8659 -0.5001 0.5001 -0.8659 295.7583 319.2546)" width="216.8" x="82.3" y="115.4"/><path d="M97.1,98.9c-1.5,2.6-0.6,6,2,7.5c2.6,1.5,6,0.6,7.5-2c1.5-2.6,2.7-13.4,2.7-13.4S98.6,96.2,97.1,98.9z" id="XMLID_444_"/><path d="M127,127.2c1.5-2.6,2.7-13.4,2.7-13.4s-10.7,5.3-12.2,7.9c-1.5,2.6-0.6,6,2,7.5   C122.1,130.7,125.5,129.8,127,127.2z" id="XMLID_443_"/><path d="M167.7,173.6c-1.5,2.6-0.6,6,2,7.5c2.6,1.5,6,0.6,7.5-2c1.5-2.6,2.7-13.4,2.7-13.4S169.2,171,167.7,173.6z   " id="XMLID_442_"/><path d="M148.5,134.1c-1.5,2.6-0.6,6,2,7.5c2.6,1.5,6,0.6,7.5-2c1.5-2.6,2.7-13.4,2.7-13.4S150,131.4,148.5,134.1z   " id="XMLID_441_"/><path d="M217.1,168.2c1.5-2.6,2.7-13.4,2.7-13.4s-10.7,5.3-12.2,7.9c-1.5,2.6-0.6,6,2,7.5   C212.2,171.7,215.6,170.8,217.1,168.2z" id="XMLID_440_"/><path d="M213.4,202.6c-1.5,2.6-0.6,6,2,7.5c2.6,1.5,6,0.6,7.5-2c1.5-2.6,2.7-13.4,2.7-13.4   S214.9,199.9,213.4,202.6z" id="XMLID_439_"/><path d="M234.7,177.5c-1.5,2.6-0.6,6,2,7.5c2.6,1.5,6,0.6,7.5-2s2.7-13.4,2.7-13.4S236.2,174.8,234.7,177.5z" id="XMLID_438_"/><path d="M245.1,202.2c-1.5,2.6-0.6,6,2,7.5c2.6,1.5,6,0.6,7.5-2c1.5-2.6,2.7-13.4,2.7-13.4   S246.6,199.5,245.1,202.2z" id="XMLID_437_"/><path d="M172.9,141.8c-1.5,2.6-0.6,6,2,7.5c2.6,1.5,6,0.6,7.5-2c1.5-2.6,2.7-13.4,2.7-13.4   S174.4,139.2,172.9,141.8z" id="XMLID_436_"/><path d="M123.1,158.9c-1.5,2.6-0.6,6,2,7.5c2.6,1.5,6,0.6,7.5-2c1.5-2.6,2.7-13.4,2.7-13.4   S124.6,156.3,123.1,158.9z" id="XMLID_435_"/></g></svg>